<mxfile host="Electron" agent="Mozilla/5.0 (Windows NT 10.0; Win64; x64) AppleWebKit/537.36 (KHTML, like Gecko) draw.io/25.0.2 Chrome/128.0.6613.186 Electron/32.2.5 Safari/537.36" version="25.0.2">
  <diagram name="Page-1" id="DLr_dcae7R1VpfkljlhT">
    <mxGraphModel dx="2494" dy="1007" grid="1" gridSize="10" guides="1" tooltips="1" connect="1" arrows="1" fold="1" page="1" pageScale="1" pageWidth="850" pageHeight="1100" math="0" shadow="0">
      <root>
        <mxCell id="0" />
        <mxCell id="1" parent="0" />
        <mxCell id="LRUn9inkC0F16jRtIyxl-18" value="" style="rounded=0;whiteSpace=wrap;html=1;" vertex="1" parent="1">
          <mxGeometry x="-180" y="30" width="40" height="1000" as="geometry" />
        </mxCell>
        <mxCell id="LRUn9inkC0F16jRtIyxl-17" value="" style="rounded=0;whiteSpace=wrap;html=1;" vertex="1" parent="1">
          <mxGeometry x="-290" y="30" width="40" height="1000" as="geometry" />
        </mxCell>
        <mxCell id="LRUn9inkC0F16jRtIyxl-16" value="" style="rounded=0;whiteSpace=wrap;html=1;" vertex="1" parent="1">
          <mxGeometry x="-410" y="30" width="40" height="1000" as="geometry" />
        </mxCell>
        <mxCell id="LRUn9inkC0F16jRtIyxl-15" value="" style="rounded=0;whiteSpace=wrap;html=1;" vertex="1" parent="1">
          <mxGeometry x="-540" y="30" width="40" height="1000" as="geometry" />
        </mxCell>
        <mxCell id="LRUn9inkC0F16jRtIyxl-1" value="" style="rounded=0;whiteSpace=wrap;html=1;" vertex="1" parent="1">
          <mxGeometry x="-680" y="30" width="40" height="1000" as="geometry" />
        </mxCell>
        <mxCell id="LRUn9inkC0F16jRtIyxl-2" value="600" style="rounded=0;whiteSpace=wrap;html=1;fillColor=#dae8fc;strokeColor=#6c8ebf;" vertex="1" parent="1">
          <mxGeometry x="-680" y="30" width="40" height="600" as="geometry" />
        </mxCell>
        <mxCell id="LRUn9inkC0F16jRtIyxl-3" value="600" style="rounded=0;whiteSpace=wrap;html=1;fillColor=#dae8fc;strokeColor=#6c8ebf;" vertex="1" parent="1">
          <mxGeometry x="-540" y="30" width="40" height="600" as="geometry" />
        </mxCell>
        <mxCell id="LRUn9inkC0F16jRtIyxl-4" value="600" style="rounded=0;whiteSpace=wrap;html=1;fillColor=#dae8fc;strokeColor=#6c8ebf;" vertex="1" parent="1">
          <mxGeometry x="-410" y="30" width="40" height="600" as="geometry" />
        </mxCell>
        <mxCell id="LRUn9inkC0F16jRtIyxl-5" value="600" style="rounded=0;whiteSpace=wrap;html=1;fillColor=#dae8fc;strokeColor=#6c8ebf;" vertex="1" parent="1">
          <mxGeometry x="-290" y="30" width="40" height="600" as="geometry" />
        </mxCell>
        <mxCell id="LRUn9inkC0F16jRtIyxl-6" value="400" style="rounded=0;whiteSpace=wrap;html=1;fillColor=#d5e8d4;strokeColor=#82b366;" vertex="1" parent="1">
          <mxGeometry x="-680" y="630" width="40" height="400" as="geometry" />
        </mxCell>
        <mxCell id="LRUn9inkC0F16jRtIyxl-7" value="400" style="rounded=0;whiteSpace=wrap;html=1;fillColor=#d5e8d4;strokeColor=#82b366;" vertex="1" parent="1">
          <mxGeometry x="-540" y="630" width="40" height="400" as="geometry" />
        </mxCell>
        <mxCell id="LRUn9inkC0F16jRtIyxl-8" value="400" style="rounded=0;whiteSpace=wrap;html=1;fillColor=#d5e8d4;strokeColor=#82b366;" vertex="1" parent="1">
          <mxGeometry x="-410" y="630" width="40" height="400" as="geometry" />
        </mxCell>
        <mxCell id="LRUn9inkC0F16jRtIyxl-9" value="400" style="rounded=0;whiteSpace=wrap;html=1;fillColor=#d5e8d4;strokeColor=#82b366;" vertex="1" parent="1">
          <mxGeometry x="-290" y="630" width="40" height="400" as="geometry" />
        </mxCell>
        <mxCell id="LRUn9inkC0F16jRtIyxl-10" value="100" style="rounded=0;whiteSpace=wrap;html=1;fillColor=#ffe6cc;strokeColor=#d79b00;" vertex="1" parent="1">
          <mxGeometry x="-180" y="30" width="40" height="100" as="geometry" />
        </mxCell>
        <mxCell id="LRUn9inkC0F16jRtIyxl-11" value="100" style="rounded=0;whiteSpace=wrap;html=1;fillColor=#ffe6cc;strokeColor=#d79b00;" vertex="1" parent="1">
          <mxGeometry x="-180" y="130" width="40" height="100" as="geometry" />
        </mxCell>
        <mxCell id="LRUn9inkC0F16jRtIyxl-12" value="100" style="rounded=0;whiteSpace=wrap;html=1;fillColor=#ffe6cc;strokeColor=#d79b00;" vertex="1" parent="1">
          <mxGeometry x="-180" y="230" width="40" height="100" as="geometry" />
        </mxCell>
        <mxCell id="LRUn9inkC0F16jRtIyxl-13" value="100" style="rounded=0;whiteSpace=wrap;html=1;fillColor=#ffe6cc;strokeColor=#d79b00;" vertex="1" parent="1">
          <mxGeometry x="-180" y="330" width="40" height="100" as="geometry" />
        </mxCell>
      </root>
    </mxGraphModel>
  </diagram>
</mxfile>
